<?xml version="1.0" encoding="UTF-8"?><svg id="Layer_2" xmlns="http://www.w3.org/2000/svg" viewBox="0 0 930.25 504.81"><g id="Layer_1-2"><path d="M712.24,261.63c17.37-4.36,32.74-17.14,42.81-31.68,9.11-13.16,7.15-23.66,26.72-22.35,8.21.55,29.9,4.35,28.44,15.44-6.82,16.67-14.67,32.94-21.44,49.63-1.58,3.88-4.32,8.93-4.04,12.96,21.2-24.8,41.83-59.33,72.18-73.82,22.53-10.75,53.19-6.07,57.06,22.58,3.65,27.03-31.92,92.29-40.76,122.72-5.14,17.72-9.4,45.29,18.71,28.71,13.19-7.78,14.58-18.28,23.27-26.73,11.56-11.26,15.95,3.44,14.91,13.92-4.18,42.43-71.59,89.26-109.81,62.06-38.21-27.2,3.56-98.35,15.69-132.19,2.05-5.72,12.33-30.18,6.26-33.76-7.57-4.47-22.17,11.76-27.04,16.98-34.23,36.7-54.27,79.8-71.72,126.28-2.99,7.97-6.15,27.22-14.98,29.02-11.98,2.44-32.56-5.45-36.76-17.77-5.2-15.25,8.07-48.78,13.48-64.51,8.41-24.5,18.37-48.48,28.01-72.48-7.01,5.3-15.29,9.13-23.81,11.18-9.16,47.18-30.28,99.2-70.86,127.64-39.29,27.53-91.8,24.65-104.83-27.83-1.88.04-9.52,12.11-11.52,14.48-16.36,19.37-42.01,40.09-68.65,26.71-19.25-9.67-20.36-27.34-24.33-45.67-.29-1.36.01-2.58-1.49-3.51-16.64,26.94-56.46,64.34-90.85,49.85-9.26-3.9-16.1-12.18-19.42-21.58-14.12-39.97,17.6-103.66,36.25-139.3,9.7-18.53,23.17-45.65,34.72-62.28,8.23-11.85,23.05-9.58,36.01-7.41,10.02,1.68,19.08,2.6,14.53,14.94-6.44,17.47-20.64,39.23-28.91,57.09-11.09,23.93-30.44,67.37-30.26,93.17.27,37.88,34.31-7.69,40.85-18.58,11.9-19.8,10-40.58,13.89-63.11,12.88-74.39,53.54-193.09,111.67-243.33,49.99-43.2,82.61-6.36,71.52,50.52-15.72,80.62-82.45,159.81-133.29,221.71-4.29,8.87-3.92,40.29-1.77,50.33,8.58,40.18,40.03-11.08,47.35-24.75,8.28-15.47,12.18-31.86,19.03-47.97,20.7-48.71,59.17-106.01,120.38-95.03,30.46,5.46,42.22,28.47,42.8,57.7ZM491.24,275.63c21.19-26.07,38.87-54.97,55.16-84.33,12-21.62,25.35-46.17,33.58-69.42,4.04-11.43,12.55-32.23,1.53-41.1-1.46-.46-2.74.11-4.1.52-14.41,4.27-36.76,47.7-43.36,61.66-19.84,41.98-32.43,87.52-42.81,132.68ZM673.23,246.65c-33.83-14.39-55.9,30.44-67.17,55.31-9.2,20.3-27.25,64.68-11.8,84.15,15.17,19.11,38.34-3.25,48.39-16.56,15.93-21.12,24.34-48.02,33.61-72.51.14-2.57-5.29-7.99-6.75-11.17-6.08-13.28-3.59-27.15,3.73-39.22Z"/><path d="M120.32,336.73c-12.76,41.59-25.22,83.35-34.6,125.89-1.48,6.71-5.34,34.87-8.03,37.97-8.01,9.26-33.68,1.15-42.77-4.16-28.95-16.92-20.76-39.32-14.41-67.01,9.9-43.17,27.9-89.64,43.94-131.06,22.61-58.39,48.26-118.97,75.91-175.09,3.33-6.76,12.59-27.96,16.85-32.15,8.29-8.15,26.04-3.96,36-.99,7.16,2.13,26.98,9.54,26.48,18.63l-80.47,180.86c72.34,1.95,144.12-44.3,179.8-105.69,69.3-119.24-46.93-154.67-143.35-123.35-46.39,15.07-109.63,60.6-108.45,114.53.18,8.23,4.28,11.87-6.46,15.56-25.28,8.67-52.67-17.06-58.7-40.39C-14.22,87.24,69.2,36.2,118.71,18.61c101.5-36.05,297.88-31.2,287.51,119.51-4.12,59.83-66.4,127.44-115.07,157.93-49.86,31.23-111.94,47.84-170.82,40.68Z"/><path d="M445.97,110.87c6.75-1.15,16.02-.24,21.77,3.75,24.21,16.83-8.35,70.86-35.19,59.19-26.8-11.65-8.17-59.27,13.43-62.95Z"/></g></svg>