<?xml version="1.0" encoding="UTF-8"?><svg id="Layer_2" xmlns="http://www.w3.org/2000/svg" viewBox="0 0 364.97 453.11"><g id="Layer_1-2"><path d="M108,302.24c-11.45,37.33-22.63,74.81-31.06,113-1.33,6.03-4.79,31.3-7.2,34.08-7.19,8.31-30.23,1.03-38.39-3.73-25.99-15.19-18.63-35.29-12.93-60.15,8.89-38.75,25.04-80.46,39.44-117.64,20.3-52.41,43.32-106.78,68.13-157.16,2.99-6.07,11.3-25.09,15.13-28.85,7.44-7.32,23.37-3.55,32.31-.89,6.42,1.92,24.22,8.56,23.77,16.72l-72.23,162.34c64.93,1.75,129.36-39.76,161.39-94.86,62.21-107.03-42.13-138.83-128.66-110.71-41.64,13.53-98.4,54.39-97.34,102.8.16,7.39,3.84,10.66-5.8,13.97-22.69,7.78-47.28-15.31-52.69-36.26C-12.76,78.3,62.11,32.49,106.56,16.71,197.66-15.65,373.93-11.3,364.61,123.97c-3.7,53.7-59.6,114.39-103.29,141.75-44.75,28.03-100.48,42.94-153.33,36.52Z"/></g></svg>